<svg width="20" height="20" viewBox="0 0 20 20" fill="none" xmlns="http://www.w3.org/2000/svg">
<g clip-path="url(#clip0_28_392)">
<path d="M19.6507 10.1871C19.6507 9.36773 19.5838 8.7698 19.439 8.14972H10.0264V11.848H15.5514C15.44 12.7671 14.8385 14.1512 13.5018 15.0813L13.483 15.2051L16.4592 17.497L16.6653 17.5174C18.559 15.779 19.6507 13.2211 19.6507 10.1871Z" fill="#1D2022"/>
<path d="M10.0263 19.9314C12.7331 19.9314 15.0055 19.0455 16.6653 17.5175L13.5017 15.0814C12.6551 15.6682 11.5189 16.0779 10.0263 16.0779C7.37517 16.0779 5.12506 14.3395 4.32296 11.9367L4.20539 11.9466L1.11078 14.3273L1.07031 14.4392C2.7189 17.6946 6.10524 19.9314 10.0263 19.9314Z" fill="#1D2022"/>
<path d="M4.32296 11.9366C4.11132 11.3165 3.98883 10.6521 3.98883 9.96559C3.98883 9.27902 4.11132 8.61467 4.31183 7.9946L4.30622 7.86253L1.17284 5.4436L1.07032 5.49208C0.390854 6.84299 0.000976562 8.36002 0.000976562 9.96559C0.000976562 11.5712 0.390854 13.0881 1.07032 14.439L4.32296 11.9366Z" fill="#1D2022"/>
<path d="M10.0263 3.85336C11.9088 3.85336 13.1786 4.66168 13.9027 5.33718L16.7321 2.59107C14.9944 0.985496 12.7331 0 10.0263 0C6.10524 0 2.7189 2.23672 1.07031 5.49214L4.31182 7.99466C5.12506 5.59183 7.37517 3.85336 10.0263 3.85336Z" fill="#1D2022"/>
</g>
<defs>
<clipPath id="clip0_28_392">
<rect width="19.661" height="20" fill="white"/>
</clipPath>
</defs>
</svg>
