<svg width="22" height="14" viewBox="0 0 22 14" fill="none" xmlns="http://www.w3.org/2000/svg">
<path fill-rule="evenodd" clip-rule="evenodd" d="M3.04308 6.98857C3.61201 8.63291 5.83348 12 11.0001 12C16.2425 12 18.4283 8.83561 18.9639 7.01012C18.4182 5.28275 16.2104 2 11.0001 2C5.81136 2 3.60029 5.25561 3.04308 6.98857ZM1.02994 6.75746C1.61883 4.4019 4.4549 0 11.0001 0C17.5453 0 20.3813 4.4019 20.9702 6.75746L21.0285 6.99065L20.9745 7.22486C20.3836 9.78514 17.5247 14 11.0001 14C4.42044 14 1.6206 9.40915 1.03531 7.26312L0.966553 7.01099L1.02994 6.75746Z" fill="#8C9AA3"/>
<path fill-rule="evenodd" clip-rule="evenodd" d="M11.0001 6C10.4478 6 10.0001 6.44772 10.0001 7C10.0001 7.55228 10.4478 8 11.0001 8C11.5524 8 12.0001 7.55228 12.0001 7C12.0001 6.44772 11.5524 6 11.0001 6ZM8.00008 7C8.00008 5.34315 9.34322 4 11.0001 4C12.6569 4 14.0001 5.34315 14.0001 7C14.0001 8.65685 12.6569 10 11.0001 10C9.34322 10 8.00008 8.65685 8.00008 7Z" fill="#8C9AA3"/>
</svg>
