<svg width="132" height="29" viewBox="0 0 132 29" fill="none" xmlns="http://www.w3.org/2000/svg">
<path d="M1.32102 5.54545H6.54545L10.9773 16.3523H11.1818L15.6136 5.54545H20.8381V23H16.7301V12.2784H16.5852L12.392 22.8892H9.76705L5.57386 12.2188H5.42898V23H1.32102V5.54545ZM23.4695 23V5.54545H35.6399V8.97159H27.6882V12.5511H35.0178V15.9858H27.6882V19.5739H35.6399V23H23.4695ZM38.282 5.54545H43.5064L47.9382 16.3523H48.1428L52.5746 5.54545H57.799V23H53.6911V12.2784H53.5462L49.353 22.8892H46.728L42.5348 12.2188H42.3899V23H38.282V5.54545ZM60.4304 23V5.54545H72.6009V8.97159H64.6491V12.5511H71.9787V15.9858H64.6491V19.5739H72.6009V23H60.4304ZM90.098 5.54545V23H86.5185L79.5724 12.9261H79.4616V23H75.2429V5.54545H78.8736L85.7429 15.6023H85.8878V5.54545H90.098ZM92.1797 8.97159V5.54545H106.933V8.97159H101.64V23H97.4808V8.97159H92.1797ZM124.67 14.2727C124.67 16.1932 124.301 17.821 123.562 19.1562C122.824 20.4915 121.824 21.5057 120.562 22.1989C119.307 22.892 117.898 23.2386 116.335 23.2386C114.767 23.2386 113.355 22.8892 112.099 22.1903C110.844 21.4915 109.847 20.4773 109.108 19.1477C108.375 17.8125 108.009 16.1875 108.009 14.2727C108.009 12.3523 108.375 10.7244 109.108 9.3892C109.847 8.05398 110.844 7.03977 112.099 6.34659C113.355 5.65341 114.767 5.30682 116.335 5.30682C117.898 5.30682 119.307 5.65341 120.562 6.34659C121.824 7.03977 122.824 8.05398 123.562 9.3892C124.301 10.7244 124.67 12.3523 124.67 14.2727ZM120.358 14.2727C120.358 13.1364 120.196 12.1761 119.872 11.392C119.554 10.608 119.094 10.0142 118.491 9.61079C117.895 9.20739 117.176 9.00568 116.335 9.00568C115.5 9.00568 114.781 9.20739 114.179 9.61079C113.577 10.0142 113.114 10.608 112.79 11.392C112.472 12.1761 112.312 13.1364 112.312 14.2727C112.312 15.4091 112.472 16.3693 112.79 17.1534C113.114 17.9375 113.577 18.5312 114.179 18.9347C114.781 19.3381 115.5 19.5398 116.335 19.5398C117.176 19.5398 117.895 19.3381 118.491 18.9347C119.094 18.5312 119.554 17.9375 119.872 17.1534C120.196 16.3693 120.358 15.4091 120.358 14.2727Z" fill="black"/>
<circle cx="126.5" cy="5.5" r="5.5" fill="#999999"/>
</svg>
